<svg xmlns="http://www.w3.org/2000/svg" viewBox="0 0 494.93 181.96"><defs><style>.cls-1{fill:#00020d;}.cls-2{fill:#ffc421;}.cls-3{fill:#fcea42;}.cls-4{fill:#9fd3a3;}.cls-5{fill:#26b45c;}</style></defs><g id="Layer_2" data-name="Layer 2"><g id="Logo_other_elements" data-name="Logo &amp; other elements"><path class="cls-1" d="M295.66,67.53l6.58-2.06V11l-6.58,2.07Zm-75.84-33a13.3,13.3,0,0,1,10.4,4.9l2.67-6.2A19.22,19.22,0,0,0,200.78,47a19.27,19.27,0,0,0,19,19.42,20.64,20.64,0,0,0,12.46-3.82V55.07a17.71,17.71,0,0,1-11.93,5.12,13.14,13.14,0,0,1-13-13.15A12.33,12.33,0,0,1,219.82,34.5Zm43.73-6.27c-11.31,0-17.89,9-17.89,18.81a19.22,19.22,0,0,0,19,19.42,20.64,20.64,0,0,0,12.46-3.82V55.07a17.71,17.71,0,0,1-11.93,5.12,12.48,12.48,0,0,1-12.61-10.47h28.82V47.2C281.44,36.64,274.49,28.23,263.55,28.23Zm.08,6.27c5.12,0,10.55,3.22,11,9.41h-22C253.08,37.72,258.51,34.5,263.63,34.5Zm70.95-6.27a19.12,19.12,0,1,0,19.11,19.12A19.12,19.12,0,0,0,334.58,28.23Zm0,32a12.85,12.85,0,1,1,12.85-12.84,12.84,12.84,0,0,1-12.85,12.84ZM219.52,100.24a13.3,13.3,0,0,1,10.4,4.9l2.68-6.2a19.22,19.22,0,0,0-32.12,13.84,19.27,19.27,0,0,0,19,19.42A20.62,20.62,0,0,0,232,128.38v-7.57a17.7,17.7,0,0,1-11.92,5.12,13.15,13.15,0,0,1-13-13.15A12.33,12.33,0,0,1,219.52,100.24Zm44-6.27a19.12,19.12,0,1,0,19.12,19.12A19.12,19.12,0,0,0,263.57,94Zm0,32a12.83,12.83,0,1,1,.05,0Zm39.82-26.47h.13c1.84-2.94,6.26-4.78,9.73-4.78,9.27,0,14.57,6.12,14.57,15.77v20.76h-6.33v-20c0-6-2.83-10.48-8.24-10.48-7.45,0-10.17,6.12-10.17,15.65v14.79H297V96.88l6.46-1.83Zm47.76,0h.13c1.84-2.94,6.25-4.78,9.73-4.78,9.26,0,14.56,6.12,14.56,15.77v20.76h-6.33v-20c0-6-2.82-10.48-8.23-10.48-7.45,0-10.17,6.12-10.17,15.65v14.79h-6.12V96.88l6.46-1.83ZM406.9,94c-11.32,0-17.89,9-17.89,18.81a19.21,19.21,0,0,0,19,19.42,20.65,20.65,0,0,0,12.47-3.82v-7.57a17.74,17.74,0,0,1-11.93,5.12A12.49,12.49,0,0,1,396,115.46h28.83v-2.53C424.79,102.38,417.83,94,406.9,94Zm.07,6.27c5.13,0,10.55,3.21,11,9.41H396C396.42,103.45,401.85,100.24,407,100.24Zm47.48,0a13.28,13.28,0,0,1,10.39,4.9l2.68-6.2a19.22,19.22,0,0,0-32.11,13.84,19.27,19.27,0,0,0,19,19.42,20.64,20.64,0,0,0,12.46-3.82v-7.57A17.72,17.72,0,0,1,455,125.93a13.15,13.15,0,0,1-13-13.15A12.34,12.34,0,0,1,454.45,100.24ZM494.93,95v6.28h-5.31v30l-6.53,2.06v-32h-5.75V95h5.75V78.79l6.53-2V95ZM208.74,176h-6.32V158.1h5.94c3.52,0,6,1.48,6,4.52a3.88,3.88,0,0,1-2.68,3.69c2.12.67,3.7,2.12,3.7,4.57C215.4,174.42,212.72,176,208.74,176ZM206.07,161v4.23h2c1.58,0,2.6-.79,2.6-2.14s-1-2.09-2.6-2.09Zm2.34,12c1.86,0,3.24-.76,3.24-2.62s-1.38-2.53-3.24-2.53h-2.34V173Zm25.27-1.14h-6.14l-1.86,4h-4.11l9.05-18.89L239.68,176h-4.14ZM228.41,169h4.43l-2.22-5.13ZM253,158.1c4.21,0,6.66,2.3,6.66,5.69a5.26,5.26,0,0,1-3.78,5.25l4.85,6.91h-4.31l-4.18-6.48h-1.58V176H247V158.1Zm-2.34,3.11v5.36h2.11c1.91,0,3.14-1,3.14-2.68s-1.23-2.68-3.14-2.68Zm26.18,11.61a7,7,0,0,0,5.46-2.45v4.1a8.12,8.12,0,0,1-5.63,1.84c-5.49,0-9.52-3.8-9.52-9.28s4-9.28,9.52-9.28a8.17,8.17,0,0,1,5.63,1.83v4.11a7,7,0,0,0-5.46-2.45,5.79,5.79,0,0,0,0,11.58Zm25.78-14.72v3.09h-7.82V165h7.31v3h-7.31v4.87h7.82V176H291.24V158.1Zm12.6,0v14.66h7.12V176H311.54V158.1Zm22.21-.35A9.35,9.35,0,1,1,328,167,9.06,9.06,0,0,1,337.39,157.75Zm0,15.17c3.29,0,5.56-2.48,5.56-5.89s-2.22-5.89-5.56-5.89-5.58,2.47-5.58,5.89S334.08,172.92,337.39,172.92Zm33.84-14.82v18.74l-12.7-11.93v11H355V157.21l12.7,11.93v-11Zm19.43,13.8h-6.14l-1.86,4h-4.11l9.05-18.89,9,18.89h-4.13ZM385.38,169h4.44l-2.22-5.13Zm38.25-1.53c1.35-1.46,2.17-2.58,2.17-4a2.57,2.57,0,0,0-2.75-2.55c-1.87,0-3,1.43-3,3.59h-3.57c0-3.79,2.32-6.78,6.68-6.78s6.43,3,6.43,5.51a6.86,6.86,0,0,1-2.5,4.95l-4.64,4.38h7.47V176H415.52Zm21-9.69c4.39,0,7.19,3.57,7.19,9.23s-2.8,9.23-7.19,9.23c-4.23,0-7.16-3.57-7.16-9.23S440.36,157.8,444.59,157.8Zm0,15.27c2.22,0,3.65-2.42,3.65-6s-1.43-6.05-3.65-6.05S441,163.41,441,167,442.4,173.07,444.59,173.07Zm22.19-5.58c1.35-1.46,2.16-2.58,2.16-4a2.57,2.57,0,0,0-2.75-2.55c-1.86,0-3,1.43-3,3.59h-3.57c0-3.79,2.32-6.78,6.68-6.78s6.42,3,6.42,5.51a6.86,6.86,0,0,1-2.5,4.95l-4.64,4.38H473V176H458.67Zm21.39,0c1.35-1.46,2.17-2.58,2.17-4a2.57,2.57,0,0,0-2.75-2.55c-1.87,0-3,1.43-3,3.59H481c0-3.79,2.32-6.78,6.68-6.78s6.43,3,6.43,5.51a6.86,6.86,0,0,1-2.5,4.95L487,172.61h7.47V176H480.06Z"/><path class="cls-2" d="M123.25,159.9C86.6,189.6,42.89,190,15.3,156.8-1.44,136.09-4,110.94,5.47,90.66a72.42,72.42,0,0,0-2.81,7.39C8.39,89.33,16.87,81.22,32,81.18c-6.82,22.32-2.13,46.67,9.25,60.71C62,167.5,88.53,176.28,123.25,159.9Z"/><path class="cls-3" d="M118.63,82.89A37.25,37.25,0,0,1,106.7,93.15c-12.13,6.51-26.62,5.09-38.32-1.09-2.31-1.19-4.56-2.28-6.72-3.25-12.12-5.46-21.85-7.63-29.77-7.63-15.13,0-23.61,8.15-29.33,16.87a74.56,74.56,0,0,1,2.91-7.39c.07-.14.13-.28.21-.42C9.4,82.17,17.41,69.4,35.07,57.05c24-16.8,54.43-22.46,77-4.52C122.27,60.51,125.43,74.71,118.63,82.89Z"/><path class="cls-4" d="M106.75,93.15c12.13,5.47,21.87,7.63,29.79,7.63a65.78,65.78,0,0,1-26.7,36.13h0c-18.38,6-37.76,4.91-53.33-7.5-10.29-8-13.44-22.17-6.69-30.36A37.37,37.37,0,0,1,61.75,88.79c2.16,1,4.41,2.06,6.72,3.26C80.13,98.23,94.62,99.66,106.75,93.15Z"/><path class="cls-5" d="M153.16,25.16c-27.59-33.23-71.3-32.8-108-3.1,34.73-16.31,61.3-7.6,82.06,18,11.36,14,16.07,38.37,9.28,60.71a65.8,65.8,0,0,1-25.67,35.42c-.38.13-.75.27-1.13.39l0,0a6.72,6.72,0,0,0,.76-.14l-.62.43h0l0,0c1.36-.1,5.31-1.65,10.22-4.13l.2-.09,1.27-.61c1.94-1,4-2.11,6.11-3.39l2-1.19c.55-.34,1.08-.69,1.61-1a82.78,82.78,0,0,0,11.7-8.79c1-.9,1.87-1.79,2.75-2.68l.7-.65.25-.24a76,76,0,0,0,15.67-21.26c.26-.5.5-1,.73-1.49.11-.24.23-.48.33-.73C172.42,70.46,169.72,45.58,153.16,25.16Z"/></g></g></svg>